<svg width="24" height="25" viewBox="0 0 24 25" fill="none" xmlns="http://www.w3.org/2000/svg">
<path d="M19.5 11.75C19.4993 10.945 19.2827 10.1548 18.8729 9.4619C18.4631 8.76898 17.8749 8.19863 17.1697 7.81025C17.7012 7.25587 17.9986 6.51798 18 5.75H16.5C16.4996 6.1477 16.3414 6.529 16.0602 6.81022C15.779 7.09144 15.3977 7.2496 15 7.25C13.8213 7.25156 12.6902 7.71522 11.8496 8.54142C11.0089 9.36763 10.5257 10.4905 10.5038 11.669C9.54216 10.6896 9.00237 9.37255 9 8C8.99803 7.33671 8.77607 6.69281 8.3689 6.16919C7.96173 5.64557 7.39236 5.27182 6.75 5.1065V3.5H5.25V5.1065C4.60764 5.27182 4.03827 5.64557 3.6311 6.16919C3.22393 6.69281 3.00197 7.33671 3 8V11.75H1.5V12.5C1.5 15.2848 2.60625 17.9555 4.57538 19.9246C6.54451 21.8938 9.21523 23 12 23C14.7848 23 17.4555 21.8938 19.4246 19.9246C21.3938 17.9555 22.5 15.2848 22.5 12.5V11.75H19.5ZM15 8.75C15.7953 8.75099 16.5578 9.06738 17.1202 9.62978C17.6826 10.1922 17.999 10.9547 18 11.75H12C12.001 10.9547 12.3174 10.1922 12.8798 9.62978C13.4422 9.06738 14.2047 8.75099 15 8.75ZM4.5 8C4.5 7.60218 4.65804 7.22064 4.93934 6.93934C5.22064 6.65804 5.60218 6.5 6 6.5C6.39782 6.5 6.77936 6.65804 7.06066 6.93934C7.34196 7.22064 7.5 7.60218 7.5 8C7.50299 9.33623 7.90291 10.6415 8.649 11.75H4.5V8ZM12 21.5C9.74377 21.497 7.57071 20.6479 5.91018 19.1204C4.24966 17.5929 3.22244 15.4981 3.0315 13.25H20.9692C20.7783 15.4983 19.751 17.5931 18.0903 19.1206C16.4296 20.6482 14.2564 21.4972 12 21.5Z" fill="#FA6815"/>
</svg>
