<svg width="18" height="19" viewBox="0 0 18 19" fill="none" xmlns="http://www.w3.org/2000/svg">
<path fill-rule="evenodd" clip-rule="evenodd" d="M4.5 2.75C3.90326 2.75 3.33097 2.98705 2.90901 3.40901C2.48705 3.83097 2.25 4.40326 2.25 5V14C2.25 14.5967 2.48705 15.169 2.90901 15.591C3.33097 16.0129 3.90326 16.25 4.5 16.25H13.5C14.0967 16.25 14.669 16.0129 15.091 15.591C15.5129 15.169 15.75 14.5967 15.75 14V5C15.75 4.40326 15.5129 3.83097 15.091 3.40901C14.669 2.98705 14.0967 2.75 13.5 2.75H4.5ZM7.5 6.5C7.5 6.30109 7.57902 6.11032 7.71967 5.96967C7.86032 5.82902 8.05109 5.75 8.25 5.75H12.75C12.9489 5.75 13.1397 5.82902 13.2803 5.96967C13.421 6.11032 13.5 6.30109 13.5 6.5C13.5 6.69891 13.421 6.88968 13.2803 7.03033C13.1397 7.17098 12.9489 7.25 12.75 7.25H8.25C8.05109 7.25 7.86032 7.17098 7.71967 7.03033C7.57902 6.88968 7.5 6.69891 7.5 6.5ZM7.5 9.5C7.5 9.30109 7.57902 9.11032 7.71967 8.96967C7.86032 8.82902 8.05109 8.75 8.25 8.75H12.75C12.9489 8.75 13.1397 8.82902 13.2803 8.96967C13.421 9.11032 13.5 9.30109 13.5 9.5C13.5 9.69891 13.421 9.88968 13.2803 10.0303C13.1397 10.171 12.9489 10.25 12.75 10.25H8.25C8.05109 10.25 7.86032 10.171 7.71967 10.0303C7.57902 9.88968 7.5 9.69891 7.5 9.5ZM7.5 12.5C7.5 12.3011 7.57902 12.1103 7.71967 11.9697C7.86032 11.829 8.05109 11.75 8.25 11.75H12.75C12.9489 11.75 13.1397 11.829 13.2803 11.9697C13.421 12.1103 13.5 12.3011 13.5 12.5C13.5 12.6989 13.421 12.8897 13.2803 13.0303C13.1397 13.171 12.9489 13.25 12.75 13.25H8.25C8.05109 13.25 7.86032 13.171 7.71967 13.0303C7.57902 12.8897 7.5 12.6989 7.5 12.5ZM5.25 5.75C5.05109 5.75 4.86032 5.82902 4.71967 5.96967C4.57902 6.11032 4.5 6.30109 4.5 6.5C4.5 6.69891 4.57902 6.88968 4.71967 7.03033C4.86032 7.17098 5.05109 7.25 5.25 7.25C5.44891 7.25 5.64043 7.17098 5.78108 7.03033C5.92173 6.88968 6.00075 6.69891 6.00075 6.5C6.00075 6.30109 5.92173 6.11032 5.78108 5.96967C5.64043 5.82902 5.44891 5.75 5.25 5.75ZM4.5 9.5C4.5 9.30109 4.57902 9.11032 4.71967 8.96967C4.86032 8.82902 5.05109 8.75 5.25 8.75C5.44891 8.75 5.64043 8.82902 5.78108 8.96967C5.92173 9.11032 6.00075 9.30109 6.00075 9.5C6.00075 9.69891 5.92173 9.88968 5.78108 10.0303C5.64043 10.171 5.44966 10.25 5.25075 10.25C5.05184 10.25 4.86032 10.171 4.71967 10.0303C4.57902 9.88968 4.5 9.69891 4.5 9.5ZM5.25 11.75C5.05109 11.75 4.86032 11.829 4.71967 11.9697C4.57902 12.1103 4.5 12.3011 4.5 12.5C4.5 12.6989 4.57902 12.8897 4.71967 13.0303C4.86032 13.171 5.05109 13.25 5.25 13.25C5.44891 13.25 5.64043 13.171 5.78108 13.0303C5.92173 12.8897 6.00075 12.6989 6.00075 12.5C6.00075 12.3011 5.92173 12.1103 5.78108 11.9697C5.64043 11.829 5.44891 11.75 5.25 11.75Z" fill="white"/>
</svg>
