<svg width="24" height="25" viewBox="0 0 24 25" fill="none" xmlns="http://www.w3.org/2000/svg">
<path d="M13.6198 8.88192L15.5858 6.91492C15.3532 6.68239 15.1815 6.39609 15.086 6.08138C14.9905 5.76667 14.974 5.43325 15.0381 5.11067C15.1022 4.78809 15.2449 4.48629 15.4535 4.23201C15.6621 3.97774 15.9302 3.77882 16.234 3.6529C16.5378 3.52697 16.868 3.47791 17.1953 3.51007C17.5226 3.54223 17.837 3.65462 18.1105 3.83727C18.384 4.01992 18.6082 4.26721 18.7634 4.55722C18.9185 4.84723 18.9997 5.17103 18.9998 5.49992C19.3287 5.49968 19.6527 5.5806 19.9429 5.7355C20.2331 5.8904 20.4807 6.11451 20.6636 6.38795C20.8465 6.66139 20.9591 6.97573 20.9915 7.30311C21.0239 7.63048 20.975 7.96079 20.8492 8.26476C20.7234 8.56873 20.5245 8.83697 20.2702 9.04572C20.016 9.25446 19.7142 9.39726 19.3915 9.46146C19.0689 9.52566 18.7353 9.50928 18.4205 9.41377C18.1057 9.31826 17.8194 9.14657 17.5868 8.91392L15.7668 10.7349M7.49977 16.4999L8.49977 17.4999M5.90377 19.0959C8.63677 21.8299 11.8038 23.0959 12.9738 21.9249C14.1458 20.7529 12.8798 17.5869 10.1458 14.8539C7.41277 12.1199 4.24577 10.8539 3.07577 12.0249C1.90377 13.1969 3.16977 16.3629 5.90377 19.0959Z" stroke="#FA6815" stroke-width="2" stroke-linecap="round" stroke-linejoin="round"/>
<path d="M12.9747 21.925C16.8797 18.019 17.8297 12.637 15.0957 9.90397C12.3627 7.16997 6.98068 8.11997 3.07568 12.025" stroke="#FA6815" stroke-width="2" stroke-linecap="round" stroke-linejoin="round"/>
</svg>
