<svg width="16" height="17" viewBox="0 0 16 17" fill="none" xmlns="http://www.w3.org/2000/svg">
<path d="M10.6667 1.45337C10.83 1.45339 10.9876 1.51334 11.1096 1.62185C11.2316 1.73035 11.3096 1.87987 11.3287 2.04204L11.3333 2.12004V2.7867H12C12.5101 2.78667 13.001 2.98159 13.3722 3.33156C13.7433 3.68153 13.9667 4.16011 13.9967 4.66937L14 4.7867V12.7867C14 13.2968 13.8051 13.7877 13.4551 14.1589C13.1052 14.53 12.6266 14.7534 12.1173 14.7834L12 14.7867H4C3.48986 14.7867 2.99899 14.5918 2.62783 14.2418C2.25666 13.8919 2.03326 13.4133 2.00333 12.904L2 12.7867V4.7867C1.99997 4.27656 2.19488 3.78569 2.54486 3.41453C2.89483 3.04336 3.3734 2.81996 3.88267 2.79004L4 2.7867H4.66667V2.12004C4.66686 1.95012 4.73192 1.78668 4.84857 1.66312C4.96521 1.53957 5.12464 1.46521 5.29426 1.45525C5.46389 1.4453 5.63092 1.50049 5.76122 1.60955C5.89152 1.71861 5.97526 1.87331 5.99533 2.04204L6 2.12004V2.7867H10V2.12004C10 1.94322 10.0702 1.77366 10.1953 1.64863C10.3203 1.52361 10.4899 1.45337 10.6667 1.45337ZM12.6667 6.12004H3.33333V12.5367C3.33333 13.0067 3.59067 13.394 3.922 13.4474L4 13.4534H12C12.342 13.4534 12.624 13.1 12.662 12.6434L12.6667 12.5367V6.12004Z" fill="white"/>
<path d="M7.99959 8.12C8.16288 8.12002 8.32048 8.17997 8.4425 8.28847C8.56453 8.39698 8.64248 8.54649 8.66159 8.70866L8.66625 8.78666V10.7867C8.66607 10.9566 8.601 11.12 8.48435 11.2436C8.36771 11.3671 8.20828 11.4415 8.03866 11.4514C7.86903 11.4614 7.702 11.4062 7.5717 11.2972C7.4414 11.1881 7.35766 11.0334 7.33759 10.8647L7.33292 10.7867V9.45333C7.163 9.45314 6.99957 9.38808 6.87601 9.27143C6.75245 9.15478 6.6781 8.99536 6.66814 8.82573C6.65818 8.6561 6.71337 8.48908 6.82243 8.35877C6.93149 8.22847 7.08619 8.14473 7.25492 8.12466L7.33292 8.12H7.99959Z" fill="white"/>
</svg>
