<svg width="157" height="33" viewBox="0 0 157 33" fill="none" xmlns="http://www.w3.org/2000/svg">
<path d="M0.162109 3.92773H20.3594V11.873H11.0957V14.4746H20.3594V22.1387H11.0957V32H0.162109V3.92773ZM27.7345 0.0253906C29.4571 0.0253906 30.7345 0.388672 31.5665 1.11523C32.3985 1.83008 32.8087 2.74414 32.797 3.85742C32.797 4.9707 32.2638 5.99609 31.1973 6.93359C30.1427 7.87109 28.7305 8.33984 26.961 8.33984C24.4766 8.33984 22.9298 7.58984 22.3204 6.08984C22.1446 5.66797 22.0567 5.19922 22.0567 4.68359C22.0567 4.16797 22.1798 3.62891 22.4259 3.06641C22.672 2.50391 23.0411 2 23.5333 1.55469C24.6231 0.535156 26.0235 0.0253906 27.7345 0.0253906ZM32.4981 32H22.3204V10.1504H32.4981V32ZM52.213 30.418C49.9865 31.9297 47.6252 32.6855 45.1291 32.6855C42.6447 32.6855 40.6232 31.9824 39.0646 30.5762C37.506 29.1582 36.7267 27.2539 36.7267 24.8633V15.7227H34.7228V10.1504H36.7267V4.24414L47.2384 3.17188V10.1504H52.213V15.7227H47.2384V21.2422C47.2384 22.8945 47.6076 24.0957 48.3459 24.8457C49.0959 25.584 50.3849 25.9531 52.213 25.9531V30.418ZM54.4026 3.92773H58.428L71.9983 16.6719L85.9377 3.92773H89.8225V32H78.2737V22.8945L71.1018 30.7695L64.1233 23.1055V32H54.4026V3.92773ZM107.34 16.4082C107.34 15.377 106.86 14.8613 105.899 14.8613C104.797 14.9668 104.082 15.5352 103.754 16.5664C103.59 17.0586 103.473 17.6328 103.403 18.2891C103.344 18.9336 103.25 19.625 103.121 20.3633L106.971 19.502L107.305 16.8125L107.34 16.4082ZM104.967 24.4062C104.967 24.4062 104.645 24.4062 104 24.4062C103.696 24.4062 103.403 24.3945 103.121 24.3711C103.121 25.7656 103.866 26.5273 105.354 26.6562C105.764 26.6914 106.162 26.709 106.549 26.709C107.545 26.709 108.793 26.4805 110.293 26.0234C111.805 25.5664 113.159 24.8223 114.354 23.791L115.444 29.2578C112.83 31.5195 108.881 32.6504 103.596 32.6504C100.561 32.6504 97.9534 31.7656 95.7738 29.9961C93.4066 28.0625 92.223 25.3848 92.223 21.9629C92.223 19.3848 92.8909 17.0703 94.2269 15.0195C95.4691 13.1445 97.1507 11.7207 99.2718 10.748C101.393 9.77539 103.684 9.28906 106.145 9.28906C109.332 9.28906 111.741 9.98633 113.369 11.3809C115.01 12.7754 115.825 14.498 115.813 16.5488C115.813 18.5996 114.834 20.4219 112.877 22.0156C110.92 23.6094 108.284 24.4062 104.967 24.4062ZM120.094 30.0664C119.157 29.1875 118.407 28.0859 117.844 26.7617C117.293 25.4258 117.018 23.9902 117.018 22.4551C117.018 20.9199 117.17 19.5898 117.475 18.4648C118.084 16.2266 119.151 14.3457 120.674 12.8223C121.401 12.0723 122.209 11.4395 123.1 10.9238C124.928 9.85742 126.856 9.32422 128.883 9.32422C130.922 9.32422 132.709 9.99805 134.245 11.3457C134.737 11.7793 135.164 12.2773 135.528 12.8398L138.041 10.1504H143.807V32H138.041L135.528 28.3613C133.606 31.1973 130.694 32.6211 126.791 32.6328C125.713 32.6445 124.559 32.4336 123.329 32C122.11 31.5781 121.032 30.9336 120.094 30.0664ZM134.332 16.7773C133.911 16.5312 133.407 16.4082 132.821 16.4082C132.235 16.4082 131.614 16.6191 130.957 17.041C130.313 17.4512 129.733 17.9727 129.217 18.6055C128.069 20.0234 127.495 21.4648 127.495 22.9297C127.495 23.9609 127.811 24.6875 128.444 25.1094C129.03 25.4961 129.92 25.4434 131.116 24.9512C132.323 24.4473 133.395 23.7969 134.332 23V16.7773ZM156.93 32H146.963V2.41602H156.93V32Z" fill="#FA6815"/>
</svg>
