<svg width="16" height="13" viewBox="0 0 16 13" fill="none" xmlns="http://www.w3.org/2000/svg">
<path fill-rule="evenodd" clip-rule="evenodd" d="M4.76 5.96046e-07C3.482 5.96046e-07 2.395 0.459001 1.633 1.296C0.878 2.124 0.5 3.258 0.5 4.513C0.5 6.693 1.61 8.43 3.02 9.781C4.424 11.126 6.19 12.149 7.652 12.914C7.75883 12.97 7.87761 12.9995 7.99826 12.9998C8.1189 13.0002 8.23784 12.9714 8.345 12.916C9.808 12.159 11.573 11.128 12.978 9.776C14.388 8.421 15.5 6.678 15.5 4.513C15.5 3.253 15.12 2.12 14.364 1.292C13.601 0.457001 12.514 -0.000999451 11.24 -0.000999451C10.164 -0.000999451 9.274 0.398001 8.597 1.15C8.36571 1.41067 8.16538 1.69725 8 2.004C7.83462 1.69725 7.63429 1.41067 7.403 1.15C6.726 0.398001 5.836 5.96046e-07 4.76 5.96046e-07Z" fill="white"/>
</svg>
