<svg width="21" height="20" viewBox="0 0 21 20" fill="none" xmlns="http://www.w3.org/2000/svg">
<path d="M11.6086 0C12.7336 0.003 13.3046 0.009 13.7976 0.023L13.9916 0.03C14.2156 0.038 14.4366 0.0479999 14.7036 0.0599999C15.7676 0.11 16.4936 0.278 17.1306 0.525C17.7906 0.779 18.3466 1.123 18.9026 1.678C19.4111 2.1779 19.8045 2.78259 20.0556 3.45C20.3026 4.087 20.4706 4.813 20.5206 5.878C20.5326 6.144 20.5426 6.365 20.5506 6.59L20.5566 6.784C20.5716 7.276 20.5776 7.847 20.5796 8.972L20.5806 9.718V11.028C20.5831 11.7574 20.5754 12.4868 20.5576 13.216L20.5516 13.41C20.5436 13.635 20.5336 13.856 20.5216 14.122C20.4716 15.187 20.3016 15.912 20.0556 16.55C19.8053 17.2178 19.4117 17.8226 18.9026 18.322C18.4026 18.8303 17.7979 19.2238 17.1306 19.475C16.4936 19.722 15.7676 19.89 14.7036 19.94C14.4663 19.9512 14.229 19.9612 13.9916 19.97L13.7976 19.976C13.3046 19.99 12.7336 19.997 11.6086 19.999L10.8626 20H9.55359C8.82386 20.0025 8.09412 19.9949 7.36459 19.977L7.17059 19.971C6.9332 19.962 6.69587 19.9517 6.45859 19.94C5.39459 19.89 4.66859 19.722 4.03059 19.475C3.36326 19.2244 2.75881 18.8308 2.25959 18.322C1.75064 17.8223 1.35682 17.2176 1.10559 16.55C0.858594 15.913 0.690594 15.187 0.640594 14.122C0.629453 13.8847 0.619453 13.6474 0.610594 13.41L0.605594 13.216C0.587166 12.4868 0.578832 11.7574 0.580594 11.028V8.972C0.577803 8.2426 0.585137 7.5132 0.602594 6.784L0.609594 6.59C0.617594 6.365 0.627594 6.144 0.639594 5.878C0.689594 4.813 0.857594 4.088 1.10459 3.45C1.35571 2.7819 1.75031 2.17702 2.26059 1.678C2.75969 1.16947 3.36374 0.775987 4.03059 0.525C4.66859 0.278 5.39359 0.11 6.45859 0.0599999C6.72459 0.0479999 6.94659 0.038 7.17059 0.03L7.36459 0.0239999C8.09379 0.00623271 8.82319 -0.0014347 9.55259 0.000999928L11.6086 0ZM10.5806 5C9.25451 5 7.98274 5.52678 7.04506 6.46447C6.10738 7.40215 5.58059 8.67392 5.58059 10C5.58059 11.3261 6.10738 12.5979 7.04506 13.5355C7.98274 14.4732 9.25451 15 10.5806 15C11.9067 15 13.1784 14.4732 14.1161 13.5355C15.0538 12.5979 15.5806 11.3261 15.5806 10C15.5806 8.67392 15.0538 7.40215 14.1161 6.46447C13.1784 5.52678 11.9067 5 10.5806 5ZM10.5806 7C10.9746 6.99993 11.3647 7.07747 11.7287 7.22817C12.0927 7.37887 12.4234 7.5998 12.7021 7.87833C12.9807 8.15686 13.2017 8.48754 13.3525 8.85149C13.5034 9.21544 13.581 9.60553 13.5811 9.9995C13.5812 10.3935 13.5036 10.7836 13.3529 11.1476C13.2022 11.5116 12.9813 11.8423 12.7028 12.121C12.4242 12.3996 12.0936 12.6206 11.7296 12.7714C11.3657 12.9223 10.9756 12.9999 10.5816 13C9.78594 13 9.02288 12.6839 8.46027 12.1213C7.89766 11.5587 7.58159 10.7956 7.58159 10C7.58159 9.20435 7.89766 8.44129 8.46027 7.87868C9.02288 7.31607 9.78594 7 10.5816 7M15.8316 3.5C15.5001 3.5 15.1821 3.6317 14.9477 3.86612C14.7133 4.10054 14.5816 4.41848 14.5816 4.75C14.5816 5.08152 14.7133 5.39946 14.9477 5.63388C15.1821 5.8683 15.5001 6 15.8316 6C16.1631 6 16.4811 5.8683 16.7155 5.63388C16.9499 5.39946 17.0816 5.08152 17.0816 4.75C17.0816 4.41848 16.9499 4.10054 16.7155 3.86612C16.4811 3.6317 16.1631 3.5 15.8316 3.5Z" fill="white"/>
</svg>
