<svg width="40" height="42" viewBox="0 0 40 42" fill="none" xmlns="http://www.w3.org/2000/svg">
<rect y="0.470947" width="40" height="41.058" rx="20" fill="#FA6815"/>
<path d="M25 16.529C25 14.947 27.106 14.527 27.664 16.009C29.016 19.589 30 22.797 30 24.529C30 27.1811 28.9464 29.7247 27.0711 31.6C25.1957 33.4754 22.6522 34.529 20 34.529C17.3478 34.529 14.8043 33.4754 12.9289 31.6C11.0536 29.7247 10 27.1811 10 24.529C10 22.669 11.136 19.107 12.644 15.203C14.594 10.147 15.57 7.61897 16.776 7.48297C17.16 7.43897 17.582 7.51697 17.926 7.69697C19 8.25697 19 11.015 19 16.529C19 17.3246 19.3161 18.0877 19.8787 18.6503C20.4413 19.2129 21.2044 19.529 22 19.529C22.7956 19.529 23.5587 19.2129 24.1213 18.6503C24.6839 18.0877 25 17.3246 25 16.529Z" stroke="white" stroke-width="2"/>
<path d="M18 34.5289L17.474 33.2149C17.0264 32.0959 16.8837 30.8782 17.0605 29.686C17.2372 28.4938 17.7271 27.3699 18.48 26.4289C18.6624 26.2008 18.8936 26.0167 19.1568 25.8902C19.4199 25.7637 19.7081 25.698 20 25.698C20.292 25.698 20.5802 25.7637 20.8433 25.8902C21.1065 26.0167 21.3377 26.2008 21.52 26.4289C23.052 28.3449 23.436 30.9369 22.526 33.2149L22 34.5289" stroke="white" stroke-width="2"/>
</svg>
