<svg width="35" height="35" viewBox="0 0 35 35" fill="none" xmlns="http://www.w3.org/2000/svg">
<rect x="0.5" y="0.5" width="34" height="34" rx="17" fill="#52D812"/>
<path d="M17.5 9.5C14.355 9.5 11.67 10.711 10.993 13.214C10.7884 13.9635 10.6426 14.7278 10.557 15.5H24.443C24.3575 14.7292 24.2121 13.9662 24.008 13.218C23.331 10.712 20.648 9.5 17.5 9.5ZM25.5 17.5H9.5C9.5 19.6217 10.3429 21.6566 11.8431 23.1569C13.3434 24.6571 15.3783 25.5 17.5 25.5C19.6217 25.5 21.6566 24.6571 23.1569 23.1569C24.6571 21.6566 25.5 19.6217 25.5 17.5ZM8.548 15.5C8.628 14.614 8.805 13.641 9.062 12.691C10.105 8.841 14.064 7.5 17.5 7.5C20.94 7.5 24.897 8.843 25.939 12.696C26.195 13.644 26.372 14.616 26.452 15.5H27.5V17.5C27.5 23.023 23.023 27.5 17.5 27.5C11.977 27.5 7.5 23.023 7.5 17.5V15.5H8.548ZM16.498 10.498H18.502V12.502H16.498V10.498ZM13.498 12.498H15.502V14.502H13.498V12.498ZM19.498 12.498H21.502V14.502H19.498V12.498Z" fill="white"/>
</svg>
