<svg width="36" height="37" viewBox="0 0 36 37" fill="none" xmlns="http://www.w3.org/2000/svg">
<rect width="36" height="36.5009" rx="18" fill="#B0B0B0"/>
<path d="M23.25 17.5009H14.355L17.0775 14.2309C17.2048 14.0778 17.2661 13.8803 17.2478 13.682C17.2295 13.4837 17.1332 13.3007 16.98 13.1734C16.8268 13.0461 16.6294 12.9849 16.4311 13.0032C16.2327 13.0215 16.0498 13.1178 15.9225 13.2709L12.1725 17.7709C12.1473 17.8067 12.1247 17.8443 12.105 17.8834C12.105 17.9209 12.105 17.9434 12.0525 17.9809C12.0185 18.0669 12.0007 18.1585 12 18.2509C12.0007 18.3434 12.0185 18.4349 12.0525 18.5209C12.0525 18.5584 12.0525 18.5809 12.105 18.6184C12.1247 18.6575 12.1473 18.6951 12.1725 18.7309L15.9225 23.2309C15.993 23.3156 16.0813 23.3837 16.1811 23.4304C16.2809 23.477 16.3898 23.5011 16.5 23.5009C16.6752 23.5013 16.8451 23.4403 16.98 23.3284C17.0559 23.2655 17.1187 23.1882 17.1647 23.1009C17.2107 23.0136 17.2391 22.9182 17.2482 22.8199C17.2572 22.7217 17.2468 22.6226 17.2175 22.5284C17.1882 22.4342 17.1407 22.3467 17.0775 22.2709L14.355 19.0009H23.25C23.4489 19.0009 23.6397 18.9219 23.7803 18.7813C23.921 18.6406 24 18.4499 24 18.2509C24 18.052 23.921 17.8613 23.7803 17.7206C23.6397 17.58 23.4489 17.5009 23.25 17.5009Z" fill="white"/>
</svg>
