<svg width="20" height="19" viewBox="0 0 20 19" fill="none" xmlns="http://www.w3.org/2000/svg">
<path d="M18.75 8.33793H3.925L8.4625 2.88793C8.67467 2.63266 8.77675 2.30356 8.74628 1.97303C8.7158 1.64249 8.55527 1.3376 8.3 1.12543C8.04473 0.913257 7.71563 0.811179 7.3851 0.841654C7.05456 0.872129 6.74967 1.03266 6.5375 1.28793L0.2875 8.78793C0.245451 8.84758 0.207849 8.91025 0.175 8.97543C0.175 9.03793 0.175 9.07543 0.0875002 9.13793C0.0308421 9.28125 0.0011764 9.43382 0 9.58793C0.0011764 9.74204 0.0308421 9.89461 0.0875002 10.0379C0.0875002 10.1004 0.0874998 10.1379 0.175 10.2004C0.207849 10.2656 0.245451 10.3283 0.2875 10.3879L6.5375 17.8879C6.65503 18.029 6.8022 18.1425 6.96856 18.2203C7.13491 18.2981 7.31636 18.3382 7.5 18.3379C7.79207 18.3385 8.07511 18.2368 8.3 18.0504C8.42657 17.9455 8.5312 17.8166 8.60789 17.6712C8.68458 17.5257 8.73183 17.3666 8.74692 17.2029C8.76202 17.0392 8.74466 16.8741 8.69586 16.7171C8.64705 16.5601 8.56775 16.4142 8.4625 16.2879L3.925 10.8379H18.75C19.0815 10.8379 19.3995 10.7062 19.6339 10.4718C19.8683 10.2374 20 9.91945 20 9.58793C20 9.25641 19.8683 8.93847 19.6339 8.70405C19.3995 8.46963 19.0815 8.33793 18.75 8.33793Z" fill="#FA6815"/>
</svg>
