<svg width="34" height="35" viewBox="0 0 34 35" fill="none" xmlns="http://www.w3.org/2000/svg">
<rect y="0.5" width="34" height="34" rx="17" fill="#52D812"/>
<path d="M17 26.5C21.9706 26.5 26 22.4706 26 17.5C26 12.5294 21.9706 8.5 17 8.5C12.0294 8.5 8 12.5294 8 17.5C8 22.4706 12.0294 26.5 17 26.5Z" stroke="white" stroke-width="2"/>
<path d="M17 20.5C18.6569 20.5 20 19.1569 20 17.5C20 15.8431 18.6569 14.5 17 14.5C15.3431 14.5 14 15.8431 14 17.5C14 19.1569 15.3431 20.5 17 20.5Z" stroke="white" stroke-width="2"/>
<path d="M20 17.5L20.39 17.04C21.311 15.958 23.08 16.71 22.938 18.124C22.79 19.6 24.69 20.319 25.557 19.116L26 18.5M14 18L13.984 18.085C13.662 19.801 11.214 19.825 10.858 18.116L10.822 17.946C10.535 16.57 8.698 16.28 8 17.5" stroke="white" stroke-width="2"/>
<path d="M14.5 12.5C14.7761 12.5 15 12.2761 15 12C15 11.7239 14.7761 11.5 14.5 11.5C14.2239 11.5 14 11.7239 14 12C14 12.2761 14.2239 12.5 14.5 12.5Z" stroke="white"/>
<path d="M21.5 14.5C21.7761 14.5 22 14.2761 22 14C22 13.7239 21.7761 13.5 21.5 13.5C21.2239 13.5 21 13.7239 21 14C21 14.2761 21.2239 14.5 21.5 14.5Z" stroke="white"/>
<path d="M18.5 11.5C18.7761 11.5 19 11.2761 19 11C19 10.7239 18.7761 10.5 18.5 10.5C18.2239 10.5 18 10.7239 18 11C18 11.2761 18.2239 11.5 18.5 11.5Z" stroke="white"/>
</svg>
