<svg width="36" height="37" viewBox="0 0 36 37" fill="none" xmlns="http://www.w3.org/2000/svg">
<rect y="0.411621" width="35.3333" height="36" rx="10" fill="#FA6815"/>
<path fill-rule="evenodd" clip-rule="evenodd" d="M11.1667 17.0783C11.1667 15.3544 11.8515 13.7011 13.0705 12.4821C14.2895 11.2631 15.9428 10.5783 17.6667 10.5783C19.3906 10.5783 21.0439 11.2631 22.2629 12.4821C23.4818 13.7011 24.1667 15.3544 24.1667 17.0783C24.1667 19.5636 23.1347 21.0276 21.9173 22.165C21.404 22.645 20.8973 23.0316 20.3573 23.4423L19.8707 23.8156C19.5065 24.092 19.1588 24.3894 18.8293 24.7063C18.5053 25.0263 18.116 25.473 17.856 26.053C17.8288 26.1211 17.7853 26.1815 17.7293 26.229C17.7233 26.2336 17.7166 26.2372 17.7093 26.2396C17.7093 26.2396 17.696 26.245 17.6667 26.245C17.6373 26.245 17.624 26.241 17.624 26.241C17.6167 26.2382 17.6099 26.2341 17.604 26.229C17.5482 26.1819 17.5047 26.1219 17.4773 26.0543C17.239 25.549 16.909 25.0924 16.504 24.7076C16.1745 24.3907 15.8268 24.0933 15.4627 23.817C15.296 23.6876 15.1347 23.5636 14.9747 23.4436C14.4336 23.0438 13.9134 22.6166 13.416 22.1636C12.2 21.029 11.1667 19.565 11.1667 17.0783ZM26.3333 17.0783C26.3333 21.6116 23.5787 23.7116 21.6267 25.1996C20.7813 25.8463 20.0853 26.3756 19.8333 26.9396C19.4733 27.745 18.7173 28.4116 17.6667 28.4116C16.616 28.4116 15.8613 27.745 15.5 26.9396C15.2467 26.3756 14.5533 25.8463 13.7053 25.1996C11.7547 23.7116 9 21.6103 9 17.0783C9 14.7797 9.91309 12.5753 11.5384 10.95C13.1637 9.32471 15.3681 8.41162 17.6667 8.41162C19.9652 8.41162 22.1696 9.32471 23.7949 10.95C25.4202 12.5753 26.3333 14.7797 26.3333 17.0783ZM19.6667 17.0783C19.6667 17.6087 19.456 18.1174 19.0809 18.4925C18.7058 18.8676 18.1971 19.0783 17.6667 19.0783C17.1362 19.0783 16.6275 18.8676 16.2525 18.4925C15.8774 18.1174 15.6667 17.6087 15.6667 17.0783C15.6667 16.5479 15.8774 16.0391 16.2525 15.6641C16.6275 15.289 17.1362 15.0783 17.6667 15.0783C18.1971 15.0783 18.7058 15.289 19.0809 15.6641C19.456 16.0391 19.6667 16.5479 19.6667 17.0783ZM21.6667 17.0783C21.6667 18.1392 21.2452 19.1566 20.4951 19.9067C19.7449 20.6569 18.7275 21.0783 17.6667 21.0783C16.6058 21.0783 15.5884 20.6569 14.8382 19.9067C14.0881 19.1566 13.6667 18.1392 13.6667 17.0783C13.6667 16.0174 14.0881 15 14.8382 14.2499C15.5884 13.4997 16.6058 13.0783 17.6667 13.0783C18.7275 13.0783 19.7449 13.4997 20.4951 14.2499C21.2452 15 21.6667 16.0174 21.6667 17.0783Z" fill="white"/>
</svg>
