<svg width="30" height="38" viewBox="0 0 30 38" fill="none" xmlns="http://www.w3.org/2000/svg">
<path d="M24.375 13.23V9.45C24.375 6.9437 23.3873 4.54006 21.6291 2.76784C19.871 0.995622 17.4864 0 15 0C12.5136 0 10.129 0.995622 8.37087 2.76784C6.61272 4.54006 5.625 6.9437 5.625 9.45V13.23C4.13316 13.23 2.70242 13.8274 1.64752 14.8907C0.592632 15.954 0 17.3962 0 18.9V32.13C0 33.6338 0.592632 35.076 1.64752 36.1393C2.70242 37.2026 4.13316 37.8 5.625 37.8H24.375C25.8668 37.8 27.2976 37.2026 28.3525 36.1393C29.4074 35.076 30 33.6338 30 32.13V18.9C30 17.3962 29.4074 15.954 28.3525 14.8907C27.2976 13.8274 25.8668 13.23 24.375 13.23ZM9.375 9.45C9.375 7.94622 9.96763 6.50404 11.0225 5.4407C12.0774 4.37737 13.5082 3.78 15 3.78C16.4918 3.78 17.9226 4.37737 18.9775 5.4407C20.0324 6.50404 20.625 7.94622 20.625 9.45V13.23H9.375V9.45ZM26.25 32.13C26.25 32.6313 26.0525 33.112 25.7008 33.4664C25.3492 33.8209 24.8723 34.02 24.375 34.02H5.625C5.12772 34.02 4.65081 33.8209 4.29918 33.4664C3.94754 33.112 3.75 32.6313 3.75 32.13V18.9C3.75 18.3987 3.94754 17.918 4.29918 17.5636C4.65081 17.2091 5.12772 17.01 5.625 17.01H24.375C24.8723 17.01 25.3492 17.2091 25.7008 17.5636C26.0525 17.918 26.25 18.3987 26.25 18.9V32.13Z" fill="#FA6815"/>
</svg>
