<svg width="24" height="25" viewBox="0 0 24 25" fill="none" xmlns="http://www.w3.org/2000/svg">
<path d="M2.5 8.99989C2.5 6.49989 3 1.49989 8.5 3.49989C8.973 5.39089 7.5 8.99989 2.5 8.99989ZM21.5 8.99989C21.5 6.49989 21 1.49989 15.5 3.49989C15.027 5.39089 16.5 8.99989 21.5 8.99989Z" stroke="#FA6815" stroke-width="2" stroke-linecap="round" stroke-linejoin="round"/>
<path d="M15 11.5H9C6.23858 11.5 4 13.7386 4 16.5C4 19.2614 6.23858 21.5 9 21.5H15C17.7614 21.5 20 19.2614 20 16.5C20 13.7386 17.7614 11.5 15 11.5Z" stroke="#FA6815" stroke-width="2" stroke-linecap="round" stroke-linejoin="round"/>
<path d="M13.5 11.5V9.5M10.5 11.5V9.5M21.5 9C22 10.5 22 13.5 20 15M2.5 9C2 10.5 2.5 13 4 15M15 21.5H22L20 17M9 21.5H2L4 17" stroke="#FA6815" stroke-width="2" stroke-linecap="round" stroke-linejoin="round"/>
</svg>
