<svg width="20" height="21" viewBox="0 0 20 21" fill="none" xmlns="http://www.w3.org/2000/svg">
<path d="M10 2.5C6.855 2.5 4.17 3.711 3.493 6.214C3.2884 6.96349 3.14262 7.72781 3.057 8.5H16.943C16.8575 7.72919 16.7121 6.96621 16.508 6.218C15.831 3.712 13.148 2.5 10 2.5ZM18 10.5H2C2 12.6217 2.84285 14.6566 4.34315 16.1569C5.84344 17.6571 7.87827 18.5 10 18.5C12.1217 18.5 14.1566 17.6571 15.6569 16.1569C17.1571 14.6566 18 12.6217 18 10.5ZM1.048 8.5C1.128 7.614 1.305 6.641 1.562 5.691C2.605 1.841 6.564 0.5 10 0.5C13.44 0.5 17.397 1.843 18.439 5.696C18.695 6.644 18.872 7.616 18.952 8.5H20V10.5C20 16.023 15.523 20.5 10 20.5C4.477 20.5 0 16.023 0 10.5V8.5H1.048ZM8.998 3.498H11.002V5.502H8.998V3.498ZM5.998 5.498H8.002V7.502H5.998V5.498ZM11.998 5.498H14.002V7.502H11.998V5.498Z" fill="#FA6815"/>
</svg>
