<svg width="1088" height="74" viewBox="0 0 1088 74" fill="none" xmlns="http://www.w3.org/2000/svg">
<rect x="0.5" y="0.5" width="72" height="73" rx="36" fill="#FA6815"/>
<rect x="0.5" y="0.5" width="72" height="73" rx="36" stroke="#FA6815"/>
<path d="M33.5866 53V26.163H28.9336V18.69H41.9526V53H33.5866Z" fill="white"/>
<line x1="73" y1="36.1" x2="338.333" y2="36.1" stroke="#FA6815" stroke-width="1.8"/>
<rect x="338.833" y="0.5" width="72" height="73" rx="36" fill="#FA6815"/>
<rect x="338.833" y="0.5" width="72" height="73" rx="36" stroke="#FA6815"/>
<path d="M363.241 52.53V46.561C370.526 40.545 378.281 34.576 378.281 28.795C378.281 26.304 377.153 24.706 374.709 24.706C372.312 24.706 370.902 26.586 370.902 29.829H363.147C363.382 21.51 368.787 17.938 375.038 17.938C382.84 17.938 386.318 22.497 386.318 28.278C386.318 35.798 379.597 41.814 374.145 45.997H386.835V52.53H363.241Z" fill="white"/>
<line x1="411.333" y1="36.1" x2="676.667" y2="36.1" stroke="#FA6815" stroke-width="1.8"/>
<rect x="677.167" y="0.5" width="72" height="73" rx="36" fill="#FA6815"/>
<rect x="677.167" y="0.5" width="72" height="73" rx="36" stroke="#FA6815"/>
<path d="M701.335 28.372C701.617 21.604 706.035 17.891 713.038 17.891C720.276 17.891 724.177 22.027 724.177 27.197C724.177 31.709 721.357 34.106 719.007 34.905V35.093C722.438 36.221 724.788 38.853 724.788 43.365C724.788 49.146 720.652 53.282 713.461 53.282C706.317 53.282 701.147 49.898 700.912 42.143H708.714C708.761 44.822 710.218 46.608 713.179 46.608C715.67 46.608 717.033 45.01 717.033 42.754C717.033 39.699 715.2 38.477 711.017 38.477H709.513V31.944H711.017C713.743 31.944 716.375 31.286 716.375 28.184C716.375 25.881 715.012 24.612 712.85 24.612C710.265 24.612 709.325 26.492 709.184 28.372H701.335Z" fill="white"/>
<line x1="749.667" y1="36.1" x2="1015" y2="36.1" stroke="#FA6815" stroke-width="1.8"/>
<rect x="1015.5" y="0.5" width="72" height="73" rx="36" fill="#FA6815"/>
<rect x="1015.5" y="0.5" width="72" height="73" rx="36" stroke="#FA6815"/>
<path d="M1053.69 53V46.89H1037.9V40.404L1052.75 19.16H1061.73V39.934H1065.58V46.89H1061.73V53H1053.69ZM1046.36 39.934H1054.26V27.996L1046.36 39.934Z" fill="white"/>
</svg>
