<svg width="1088" height="74" viewBox="0 0 1088 74" fill="none" xmlns="http://www.w3.org/2000/svg">
<rect x="0.5" y="0.5" width="73" height="73" rx="36.5" fill="#52D812"/>
<rect x="0.5" y="0.5" width="73" height="73" rx="36.5" stroke="#52D812"/>
<path d="M50.3333 27L32 45.3333L23.6666 37" stroke="white" stroke-width="4" stroke-linecap="round" stroke-linejoin="round"/>
<line x1="74" y1="36.1" x2="339" y2="36.1" stroke="#52D812" stroke-width="1.8"/>
<rect x="339.5" y="0.5" width="72" height="73" rx="36" fill="#FA6815"/>
<rect x="339.5" y="0.5" width="72" height="73" rx="36" stroke="#FA6815"/>
<path d="M363.908 46.561C364.973 45.715 365.459 45.3233 365.365 45.386C368.435 42.848 370.848 40.7643 372.603 39.135C374.389 37.5057 375.893 35.798 377.115 34.012C378.337 32.226 378.948 30.487 378.948 28.795C378.948 27.5103 378.65 26.5077 378.055 25.787C377.459 25.0663 376.566 24.706 375.376 24.706C374.185 24.706 373.245 25.1603 372.556 26.069C371.898 26.9463 371.569 28.1997 371.569 29.829H363.814C363.876 27.1657 364.44 24.941 365.506 23.155C366.602 21.369 368.028 20.053 369.783 19.207C371.569 18.361 373.543 17.938 375.705 17.938C379.433 17.938 382.238 18.8937 384.118 20.805C386.029 22.7163 386.985 25.2073 386.985 28.278C386.985 31.6307 385.841 34.7483 383.554 37.631C381.266 40.4823 378.352 43.271 374.812 45.997H387.502V52.53H363.908V46.561Z" fill="white"/>
<line x1="412" y1="36.1" x2="677" y2="36.1" stroke="#FA6815" stroke-width="1.8"/>
<rect x="677.5" y="0.5" width="72" height="73" rx="36" fill="#FA6815"/>
<rect x="677.5" y="0.5" width="72" height="73" rx="36" stroke="#FA6815"/>
<path d="M701.668 28.372C701.794 25.0193 702.89 22.4343 704.958 20.617C707.026 18.7997 709.831 17.891 713.371 17.891C715.721 17.891 717.727 18.2983 719.387 19.113C721.079 19.9277 722.348 21.04 723.194 22.45C724.072 23.86 724.51 25.4423 724.51 27.197C724.51 29.265 723.993 30.957 722.959 32.273C721.925 33.5577 720.719 34.435 719.34 34.905V35.093C721.126 35.6883 722.536 36.6753 723.57 38.054C724.604 39.4327 725.121 41.203 725.121 43.365C725.121 45.3077 724.667 47.031 723.758 48.535C722.881 50.0077 721.581 51.167 719.857 52.013C718.165 52.859 716.144 53.282 713.794 53.282C710.034 53.282 707.026 52.3577 704.77 50.509C702.546 48.6603 701.371 45.8717 701.245 42.143H709.047C709.079 43.5217 709.47 44.6183 710.222 45.433C710.974 46.2163 712.071 46.608 713.512 46.608C714.734 46.608 715.674 46.2633 716.332 45.574C717.022 44.8533 717.366 43.9133 717.366 42.754C717.366 41.25 716.881 40.169 715.909 39.511C714.969 38.8217 713.45 38.477 711.35 38.477H709.846V31.944H711.35C712.948 31.944 714.233 31.6777 715.204 31.145C716.207 30.581 716.708 29.594 716.708 28.184C716.708 27.056 716.395 26.1787 715.768 25.552C715.142 24.9253 714.28 24.612 713.183 24.612C711.993 24.612 711.1 24.9723 710.504 25.693C709.94 26.4137 709.611 27.3067 709.517 28.372H701.668Z" fill="white"/>
<line x1="750" y1="36.1" x2="1015" y2="36.1" stroke="#FA6815" stroke-width="1.8"/>
<rect x="1015.5" y="0.5" width="72" height="73" rx="36" fill="#FA6815"/>
<rect x="1015.5" y="0.5" width="72" height="73" rx="36" stroke="#FA6815"/>
<path d="M1037.9 46.89V40.404L1052.75 19.16H1061.73V39.934H1065.58V46.89H1061.73V53H1053.69V46.89H1037.9ZM1054.26 27.996L1046.36 39.934H1054.26V27.996Z" fill="white"/>
</svg>
