<svg width="1088" height="74" viewBox="0 0 1088 74" fill="none" xmlns="http://www.w3.org/2000/svg">
<rect x="0.5" y="0.5" width="73" height="73" rx="36.5" fill="#52D812"/>
<rect x="0.5" y="0.5" width="73" height="73" rx="36.5" stroke="#52D812"/>
<path d="M50.3333 27L32 45.3333L23.6666 37" stroke="white" stroke-width="4" stroke-linecap="round" stroke-linejoin="round"/>
<line x1="74" y1="36.1" x2="338.667" y2="36.1" stroke="#52D812" stroke-width="1.8"/>
<rect x="339.167" y="0.5" width="73" height="73" rx="36.5" fill="#52D812"/>
<rect x="339.167" y="0.5" width="73" height="73" rx="36.5" stroke="#52D812"/>
<path d="M389 27L370.667 45.3333L362.333 37" stroke="white" stroke-width="4" stroke-linecap="round" stroke-linejoin="round"/>
<line x1="412.667" y1="36.1" x2="677.333" y2="36.1" stroke="#52D812" stroke-width="1.8"/>
<rect x="677.833" y="0.5" width="72" height="73" rx="36" fill="#FA6815"/>
<rect x="677.833" y="0.5" width="72" height="73" rx="36" stroke="#FA6815"/>
<path d="M702.002 28.372C702.127 25.0193 703.224 22.4343 705.292 20.617C707.36 18.7997 710.164 17.891 713.705 17.891C716.055 17.891 718.06 18.2983 719.721 19.113C721.413 19.9277 722.682 21.04 723.528 22.45C724.405 23.86 724.844 25.4423 724.844 27.197C724.844 29.265 724.327 30.957 723.293 32.273C722.259 33.5577 721.053 34.435 719.674 34.905V35.093C721.46 35.6883 722.87 36.6753 723.904 38.054C724.938 39.4327 725.455 41.203 725.455 43.365C725.455 45.3077 725.001 47.031 724.092 48.535C723.215 50.0077 721.914 51.167 720.191 52.013C718.499 52.859 716.478 53.282 714.128 53.282C710.368 53.282 707.36 52.3577 705.104 50.509C702.879 48.6603 701.704 45.8717 701.579 42.143H709.381C709.412 43.5217 709.804 44.6183 710.556 45.433C711.308 46.2163 712.405 46.608 713.846 46.608C715.068 46.608 716.008 46.2633 716.666 45.574C717.355 44.8533 717.7 43.9133 717.7 42.754C717.7 41.25 717.214 40.169 716.243 39.511C715.303 38.8217 713.783 38.477 711.684 38.477H710.18V31.944H711.684C713.282 31.944 714.567 31.6777 715.538 31.145C716.541 30.581 717.042 29.594 717.042 28.184C717.042 27.056 716.729 26.1787 716.102 25.552C715.475 24.9253 714.614 24.612 713.517 24.612C712.326 24.612 711.433 24.9723 710.838 25.693C710.274 26.4137 709.945 27.3067 709.851 28.372H702.002Z" fill="white"/>
<line x1="750.333" y1="36.1" x2="1015" y2="36.1" stroke="#FA6815" stroke-width="1.8"/>
<rect x="1015.5" y="0.5" width="72" height="73" rx="36" fill="#FA6815"/>
<rect x="1015.5" y="0.5" width="72" height="73" rx="36" stroke="#FA6815"/>
<path d="M1037.9 46.89V40.404L1052.75 19.16H1061.73V39.934H1065.58V46.89H1061.73V53H1053.69V46.89H1037.9ZM1054.26 27.996L1046.36 39.934H1054.26V27.996Z" fill="white"/>
</svg>
