<svg width="33" height="33" viewBox="0 0 33 33" fill="none" xmlns="http://www.w3.org/2000/svg">
<rect x="0.000732422" y="-0.00146484" width="32.9993" height="33.0028" rx="16.4997" fill="#52D812"/>
<path d="M27.0001 12.0005C27.0006 10.4975 26.4369 9.049 25.4206 7.94162C24.4044 6.83425 23.0095 6.14864 21.5119 6.02042C20.0144 5.8922 18.5232 6.33071 17.3335 7.2492C16.1438 8.16769 15.3421 9.49926 15.0871 10.9805C14.8606 11.7213 14.5916 12.4486 14.2816 13.1585L10.7191 16.721C10.6144 16.826 10.5432 16.9596 10.5145 17.105C10.4857 17.2504 10.5007 17.4011 10.5575 17.538C10.6143 17.6749 10.7104 17.7919 10.8337 17.8742C10.957 17.9565 11.1018 18.0005 11.2501 18.0005H11.3641L9.13957 20.225L9.11857 20.234C9.08019 20.2457 9.04019 20.2513 9.00007 20.2505C8.37344 20.2506 7.76259 20.447 7.25325 20.812C6.74391 21.177 6.36164 21.6923 6.16012 22.2857C5.95859 22.879 5.94791 23.5205 6.12958 24.1203C6.31125 24.72 6.67615 25.2477 7.17307 25.6295C7.24807 25.6865 7.31407 25.754 7.37107 25.829C7.7529 26.326 8.28081 26.691 8.88066 26.8726C9.48052 27.0542 10.1222 27.0434 10.7156 26.8417C11.309 26.64 11.8243 26.2575 12.1892 25.7479C12.5541 25.2383 12.7502 24.6272 12.7501 24.0005C12.7492 23.9605 12.7542 23.9205 12.7651 23.882C12.768 23.8752 12.7715 23.8687 12.7756 23.8625L15.0001 21.6395V21.7505C14.9998 21.899 15.0436 22.0443 15.126 22.1679C15.2084 22.2915 15.3257 22.3878 15.4629 22.4447C15.6001 22.5016 15.7511 22.5164 15.8968 22.4874C16.0424 22.4583 16.1762 22.3867 16.2811 22.2815L19.8151 18.746C20.3746 18.497 21.1351 18.2015 22.1491 17.891C23.5153 17.6241 24.7463 16.8906 25.6313 15.816C26.5163 14.7414 27.0001 13.3926 27.0001 12.0005ZM13.4851 18.0005H15.0001V19.517L11.7121 22.805C11.4061 23.1268 11.24 23.5566 11.2501 24.0005C11.25 24.3138 11.1518 24.6192 10.9693 24.8739C10.7868 25.1286 10.5291 25.3197 10.2325 25.4205C9.93582 25.5212 9.61504 25.5266 9.31519 25.4357C9.01533 25.3449 8.75144 25.1625 8.56057 24.914C8.42371 24.7366 8.26438 24.5778 8.08657 24.4415C7.8375 24.2508 7.65448 23.9868 7.56326 23.6867C7.47204 23.3865 7.47722 23.0654 7.57805 22.7683C7.67889 22.4713 7.87031 22.2133 8.12539 22.0307C8.38048 21.8482 8.68638 21.7502 9.00007 21.7505C9.37207 21.7505 9.84007 21.6455 10.2001 21.2855L13.4851 18.0005Z" fill="white"/>
</svg>
