<svg width="32" height="32" viewBox="0 0 32 32" fill="none" xmlns="http://www.w3.org/2000/svg">
<path d="M29.12 23.2715C30.356 21.0475 31.0032 18.5444 31 16C31 7.71601 24.284 1.00001 16 1.00001C13.456 0.996859 10.9533 1.64382 8.72951 2.87951L7.63001 1.78051C7.12962 1.28106 6.45151 1.00055 5.74451 1.00055C5.03751 1.00055 4.3594 1.28106 3.85901 1.78051L1.78001 3.85851C1.28053 4.35899 1 5.03718 1 5.74426C1 6.45134 1.28053 7.12954 1.78001 7.63001L2.87951 8.72951C1.64382 10.9533 0.996859 13.456 1.00001 16C1.00001 24.284 7.71501 31 16 31C18.5441 31.0032 21.0468 30.3561 23.2705 29.12L24.37 30.2195C24.8705 30.719 25.5487 30.9995 26.2558 30.9995C26.9628 30.9995 27.641 30.719 28.1415 30.2195L30.2195 28.1415C30.719 27.641 30.9995 26.9628 30.9995 26.2558C30.9995 25.5487 30.719 24.8705 30.2195 24.37L29.12 23.2715ZM3.35101 6.05851C3.2679 5.97494 3.22125 5.86187 3.22125 5.74401C3.22125 5.62615 3.2679 5.51308 3.35101 5.42951L5.43001 3.35051C5.51343 3.26731 5.62644 3.22059 5.74426 3.22059C5.86208 3.22059 5.97509 3.26731 6.05851 3.35051L6.83601 4.12851C5.82229 4.91248 4.91248 5.82229 4.12851 6.83601L3.35101 6.05851ZM16 27.719C9.52851 27.719 4.28151 22.4725 4.28151 16C4.28151 9.52801 9.52851 4.28151 16 4.28151C22.4715 4.28151 27.719 9.52801 27.719 16C27.719 22.4725 22.4715 27.719 16 27.719ZM28.6495 26.5705L26.5695 28.6495C26.4861 28.7326 26.3732 28.7792 26.2555 28.7792C26.1378 28.7792 26.0249 28.7326 25.9415 28.6495L25.164 27.871C26.1778 27.0875 27.0875 26.1778 27.871 25.164L28.6495 25.9415C28.7326 26.0251 28.7793 26.1382 28.7793 26.256C28.7793 26.3739 28.7326 26.4869 28.6495 26.5705Z" fill="#B0B0B0"/>
<path d="M20.7815 15.5171C22.172 18.4436 22.8205 19.4201 25.309 17.4081C27.7955 15.3976 28.9485 10.5371 19.7965 5.67458C17.308 4.35258 13.3325 6.85708 13.781 8.96708C14.2305 11.0781 19.3935 12.5916 20.7815 15.5171ZM25.3225 13.0911C27.0205 13.0911 24.2795 14.0216 22.6455 15.4326C21.8535 16.1166 22.2345 13.0911 25.3225 13.0911ZM23.0565 9.34558C24.7555 9.34558 22.0145 10.2746 20.3805 11.6866C19.591 12.3696 19.967 9.34558 23.0565 9.34558ZM19.4035 6.90558C21.101 6.90558 18.3595 7.83608 16.7285 9.24508C15.9355 9.92908 16.3145 6.90558 19.4035 6.90558ZM21.201 21.4846C19.1715 22.9281 17.9265 24.6381 18.414 25.3061C19.292 26.5131 19.292 26.5131 22.965 23.8991C24.9915 22.4576 26.2395 20.7456 25.752 20.0786C24.87 18.8721 24.87 18.8721 21.201 21.4846ZM21.2725 20.8231C22.1985 20.8591 21.621 20.0001 21.7275 18.9186C21.832 17.8366 20.952 18.3911 19.294 18.2946C17.634 18.1981 18.1165 19.5046 18.1835 20.5486C18.251 21.5921 18.8885 20.7346 21.2725 20.8231Z" fill="#B0B0B0"/>
<path d="M15.1856 21.6279C14.6196 21.2754 14.1411 20.7939 13.7151 20.2509C14.0991 20.4064 14.5656 20.4959 15.0486 20.5879C15.2581 20.6279 15.4676 20.6679 15.6656 20.7129C15.8821 20.7629 16.0496 20.7859 16.1921 20.7859C16.9691 20.7859 17.0541 20.1269 17.1051 19.7324C17.1511 19.3759 17.2146 18.8869 17.5346 18.2414C17.7026 17.9004 17.6446 17.6429 17.5661 17.4864C17.3601 17.0724 16.8721 16.9794 16.2551 16.8624C15.9111 16.7969 15.5211 16.7229 15.1331 16.5889C14.8521 16.4919 14.6306 16.4469 14.4351 16.4469C13.6861 16.4469 13.4996 17.0749 13.3631 17.5329C13.2841 17.7984 13.1946 18.1004 13.0181 18.4314C12.9303 18.5934 12.8704 18.7691 12.8411 18.9509C11.7151 17.0429 10.9236 14.9259 9.58858 14.4344C9.55758 14.4234 9.52508 14.4199 9.49408 14.4104C9.51608 14.3619 9.53008 14.3184 9.55508 14.2679C9.72308 13.9274 9.66508 13.6694 9.58658 13.5129C9.42858 13.1959 9.10508 13.0674 8.68558 12.9719C9.17308 12.5124 9.81808 11.8344 10.7331 10.8694C10.8046 10.7944 10.8716 10.7194 10.9401 10.6439C10.8876 10.7779 10.8251 10.9184 10.7466 11.0644C10.4756 11.5724 10.6251 11.8769 10.9801 12.0819C10.7306 12.1594 10.5511 12.2849 10.4696 12.4659C9.80458 13.9429 9.80458 13.9429 14.2116 15.9989C16.6431 17.1339 18.9146 17.3924 19.2831 16.5779C19.9491 15.0974 19.9491 15.0974 15.5411 13.0434C14.9913 12.7855 14.4249 12.5647 13.8456 12.3824C13.9296 12.0314 13.8986 11.3744 14.3751 10.4159C14.7081 9.73994 13.5091 9.88844 12.2591 9.45894C12.1441 9.41894 12.0461 9.39394 11.9571 9.37494C12.8601 8.07294 13.2246 6.92394 12.7771 6.50794C11.6611 5.47344 11.6611 5.47344 8.50158 8.80194C7.19158 10.1809 6.36108 11.6164 6.28508 12.4919C5.68158 12.5829 5.50958 13.1394 5.38458 13.5589C5.30558 13.8249 5.21608 14.1264 5.03958 14.4579C4.81158 14.8854 4.77858 15.2744 4.94158 15.6144C5.09508 15.9344 5.38458 16.1369 5.74758 16.2819C5.20758 17.1199 4.96958 18.1064 5.33808 19.0124C8.89058 27.7524 14.0046 27.6344 16.4226 25.8564C18.8421 24.0789 17.9476 23.3464 15.1856 21.6279ZM6.70108 19.6364C7.16708 16.9794 10.2976 17.1979 9.48308 17.7544C7.80358 18.9064 6.44258 21.0954 6.70108 19.6364ZM11.1846 20.8094C9.50508 21.9609 8.14558 24.1484 8.40258 22.6914C8.87008 20.0319 12.0001 20.2509 11.1846 20.8094ZM14.2051 23.0439C12.5256 24.1954 11.1671 26.3839 11.4231 24.9269C11.8916 22.2684 15.0196 22.4874 14.2051 23.0439Z" fill="#B0B0B0"/>
</svg>
