<svg width="36" height="37" viewBox="0 0 36 37" fill="none" xmlns="http://www.w3.org/2000/svg">
<rect x="36" y="36.501" width="36" height="36.5009" rx="18" transform="rotate(180 36 36.501)" fill="#B0B0B0"/>
<path d="M12.75 19H21.645L18.9225 22.27C18.7952 22.4232 18.7339 22.6207 18.7522 22.819C18.7705 23.0173 18.8668 23.2002 19.02 23.3275C19.1732 23.4548 19.3706 23.5161 19.5689 23.4978C19.7673 23.4795 19.9502 23.3832 20.0775 23.23L23.8275 18.73C23.8527 18.6942 23.8753 18.6566 23.895 18.6175C23.895 18.58 23.895 18.5575 23.9475 18.52C23.9815 18.434 23.9993 18.3425 24 18.25C23.9993 18.1576 23.9815 18.066 23.9475 17.98C23.9475 17.9425 23.9475 17.92 23.895 17.8825C23.8753 17.8434 23.8527 17.8058 23.8275 17.77L20.0775 13.27C20.007 13.1854 19.9187 13.1173 19.8189 13.0706C19.7191 13.024 19.6102 12.9999 19.5 13C19.3248 12.9997 19.1549 13.0607 19.02 13.1725C18.9441 13.2355 18.8813 13.3128 18.8353 13.4001C18.7893 13.4873 18.7609 13.5828 18.7518 13.6811C18.7428 13.7793 18.7532 13.8783 18.7825 13.9725C18.8118 14.0668 18.8593 14.1542 18.9225 14.23L21.645 17.5H12.75C12.5511 17.5 12.3603 17.5791 12.2197 17.7197C12.079 17.8604 12 18.0511 12 18.25C12 18.4489 12.079 18.6397 12.2197 18.7804C12.3603 18.921 12.5511 19 12.75 19Z" fill="white"/>
</svg>
