<svg width="24" height="25" viewBox="0 0 24 25" fill="none" xmlns="http://www.w3.org/2000/svg">
<path d="M16 4.45095C16.75 4.24995 17.665 4.30595 18.22 4.45095C19.4705 4.77995 20.3825 5.34495 20.928 6.13095C21.5595 7.03945 21.6685 8.19945 21.254 9.57795C20.4045 12.3979 16.954 14.1479 16.75 14.2499C16.7675 14.7819 16.89 15.6249 17.0765 16.1839C17.34 16.9714 17.5825 17.7784 17.4165 18.6389C17.25 19.4999 16.8395 20.1509 16.283 20.5934C15.772 21.0029 15.1395 21.2104 14.4045 21.2104C14.1425 21.2099 13.881 21.1839 13.6235 21.1349M6.49996 13.7499C6.49996 13.7499 3.59496 12.3969 2.74646 9.57795C2.33146 8.19995 2.44096 7.04095 3.07196 6.13095C3.61846 5.34545 4.52896 4.78095 5.77996 4.45095C6.33546 4.30595 6.86696 4.23145 7.36096 4.23145M6.74996 13.9999C6.99996 14.4999 6.78396 15.3979 6.51996 16.1859C6.25646 16.9739 5.98446 17.7869 6.17996 18.6409C6.37496 19.4939 6.75646 20.1524 7.31196 20.5949C7.82396 21.0039 8.26496 21.2499 8.99996 21.2499C9.26146 21.2489 9.99996 20.9999 9.99996 20.9999" stroke="#FA6815" stroke-width="2" stroke-linecap="round" stroke-linejoin="round"/>
<path d="M11.75 2.5C14.3735 2.5 16.5 3.8215 16.5 7.6875C16.5 11.554 11.75 16.5 11.75 16.5C11.75 16.5 7 11.5535 7 7.6875C7 3.821 9.1265 2.5 11.75 2.5Z" stroke="#FA6815" stroke-width="2" stroke-linecap="round" stroke-linejoin="round"/>
<path d="M12 21.6146C10.995 21.6146 10.14 21.2836 9.56498 20.7796C8.90148 20.1966 8.56348 19.3666 8.56348 18.3136C8.56348 17.4356 9.03848 16.7031 9.49698 15.9936C9.82298 15.4901 10.274 14.4986 10.274 14.4986C10.274 14.4986 10.5115 13.6806 10.4725 13.1486C10.4 12.1666 9.44648 11.4271 9.29148 10.9201C9.10398 10.2901 9.14998 9.90609 9.43398 9.71409C9.52148 9.65409 9.85648 9.63409 9.85648 9.63409C9.85648 9.63409 9.79348 8.71109 9.83298 8.40659C9.88048 8.04159 10.071 7.52059 10.519 7.48259C10.829 7.45609 11.074 7.50259 11.233 7.83609C11.284 7.94409 11.3195 8.07459 11.369 8.25559C11.5355 8.85869 11.7455 9.4489 11.9975 10.0216C12.25 9.44898 12.4606 8.85875 12.6275 8.25559C12.6775 8.07509 12.7125 7.94409 12.764 7.83559C12.923 7.50209 13.169 7.45659 13.479 7.48309C13.8565 7.51609 14.1165 8.04259 14.164 8.40659C14.204 8.71109 14.196 9.11659 14.1405 9.63359H14.164C14.2715 9.63359 14.477 9.65359 14.565 9.71359C14.8495 9.90559 14.866 10.4731 14.7065 10.9201C14.5 11.5001 13.6015 12.0666 13.5 13.0001C13.4355 13.5886 13.5475 13.9351 13.7255 14.4991C13.9235 15.1266 14.1755 15.4906 14.5025 15.9936C14.9615 16.7026 15.436 17.4361 15.436 18.3136C15.436 19.3666 15.099 20.1961 14.434 20.7791C13.858 21.2831 13.005 21.6141 12 21.6146Z" stroke="#FA6815" stroke-width="2" stroke-linecap="round" stroke-linejoin="round"/>
</svg>
