<svg width="36" height="36" viewBox="0 0 36 36" fill="none" xmlns="http://www.w3.org/2000/svg">
<rect y="0.411621" width="36" height="35.1767" rx="10" fill="#FA6815"/>
<path fill-rule="evenodd" clip-rule="evenodd" d="M19.5607 14.9219L20.0196 16.0631L21.2484 16.1468L25.4278 16.4305L22.2119 19.1169L21.268 19.9052L21.5687 21.1001L22.591 25.1631L19.043 22.9355L17.9998 22.2805L16.9566 22.9342L13.4087 25.1631L14.431 21.1001L14.7316 19.9052L13.7865 19.1169L10.5706 16.4305L14.7513 16.1468L15.9801 16.0631L16.4376 14.9206L17.9998 11.0327L19.5607 14.9219ZM9.46462 14.5401L14.6192 14.1898L16.5435 9.396C17.0717 8.08349 18.928 8.08349 19.4561 9.396L21.3805 14.1898L26.5351 14.5401C27.9469 14.6356 28.5195 16.4017 27.4345 17.309L23.4708 20.6216L24.731 25.6311C25.0761 27.0037 23.5728 28.094 22.3753 27.3436L17.9998 24.5957L13.6244 27.3423C12.4269 28.094 10.9235 27.0024 11.2687 25.6311L12.5289 20.6216L8.56522 17.309C7.48018 16.4017 8.05407 14.6356 9.46462 14.5401Z" fill="white"/>
</svg>
