<svg width="12" height="12" viewBox="0 0 12 12" fill="none" xmlns="http://www.w3.org/2000/svg">
<path fill-rule="evenodd" clip-rule="evenodd" d="M6.93644 4.15321L7.21175 4.83797L7.94905 4.88817L10.4567 5.05837L8.52713 6.67025L7.96082 7.14322L8.14122 7.86013L8.7546 10.2979L6.62583 8.96138L5.9999 8.56841L5.37398 8.9606L3.24521 10.2979L3.85858 7.86013L4.03899 7.14322L3.47189 6.67025L1.54235 5.05837L4.05075 4.88817L4.78806 4.83797L5.06258 4.15243L5.9999 1.81972L6.93644 4.15321ZM0.878775 3.92418L3.97153 3.71397L5.12612 0.837698C5.443 0.0501944 6.5568 0.0501944 6.87369 0.837698L8.02828 3.71397L11.121 3.92418C11.9681 3.98144 12.3117 5.04112 11.6607 5.58547L9.28248 7.57305L10.0386 10.5787C10.2457 11.4023 9.34366 12.0565 8.62518 11.6063L5.9999 9.95752L3.37463 11.6055C2.65615 12.0565 1.75413 11.4015 1.9612 10.5787L2.71733 7.57305L0.339131 5.58547C-0.311893 5.04112 0.0324435 3.98144 0.878775 3.92418Z" fill="black"/>
</svg>
