<svg width="16" height="18" viewBox="0 0 16 18" fill="none" xmlns="http://www.w3.org/2000/svg">
<path d="M12.681 2.82C11.9975 2.03962 11.6207 1.03743 11.621 0H8.53103V12.4C8.5072 13.071 8.2239 13.7066 7.74079 14.1729C7.25769 14.6393 6.61248 14.8999 5.94103 14.9C4.52103 14.9 3.34103 13.74 3.34103 12.3C3.34103 10.58 5.00103 9.29 6.71103 9.82V6.66C3.26103 6.2 0.241028 8.88 0.241028 12.3C0.241028 15.63 3.00103 18 5.93103 18C9.07103 18 11.621 15.45 11.621 12.3V6.01C12.874 6.90985 14.3784 7.39265 15.921 7.39V4.3C15.921 4.3 14.041 4.39 12.681 2.82Z" fill="white"/>
</svg>
