<svg width="36" height="37" viewBox="0 0 36 37" fill="none" xmlns="http://www.w3.org/2000/svg">
<rect y="0.411621" width="36" height="36" rx="10" fill="#FA6815"/>
<path fill-rule="evenodd" clip-rule="evenodd" d="M25.8571 18.4116C25.8571 20.4955 25.0293 22.494 23.5558 23.9675C22.0823 25.441 20.0838 26.2688 18 26.2688C15.9162 26.2688 13.9177 25.441 12.4442 23.9675C10.9707 22.494 10.1429 20.4955 10.1429 18.4116C10.1429 16.3278 10.9707 14.3293 12.4442 12.8558C13.9177 11.3823 15.9162 10.5545 18 10.5545C20.0838 10.5545 22.0823 11.3823 23.5558 12.8558C25.0293 14.3293 25.8571 16.3278 25.8571 18.4116ZM28 18.4116C28 21.0638 26.9464 23.6073 25.0711 25.4827C23.1957 27.3581 20.6522 28.4116 18 28.4116C15.3478 28.4116 12.8043 27.3581 10.9289 25.4827C9.05357 23.6073 8 21.0638 8 18.4116C8 15.7595 9.05357 13.2159 10.9289 11.3406C12.8043 9.46519 15.3478 8.41162 18 8.41162C20.6522 8.41162 23.1957 9.46519 25.0711 11.3406C26.9464 13.2159 28 15.7595 28 18.4116ZM19.0714 13.4116C19.0714 13.1275 18.9585 12.8549 18.7576 12.654C18.5567 12.4531 18.2842 12.3402 18 12.3402C17.7158 12.3402 17.4433 12.4531 17.2424 12.654C17.0415 12.8549 16.9286 13.1275 16.9286 13.4116V18.4116C16.9286 18.578 16.9673 18.742 17.0417 18.8908C17.1161 19.0396 17.2241 19.169 17.3571 19.2688L20.2143 21.4116C20.3268 21.496 20.4549 21.5575 20.5912 21.5924C20.7275 21.6273 20.8694 21.635 21.0087 21.6151C21.148 21.5952 21.282 21.5481 21.403 21.4764C21.5241 21.4047 21.6299 21.3099 21.7143 21.1973C21.7987 21.0848 21.8601 20.9567 21.8951 20.8204C21.93 20.6841 21.9377 20.5422 21.9178 20.403C21.8979 20.2637 21.8508 20.1297 21.7791 20.0086C21.7074 19.8875 21.6126 19.7818 21.5 19.6973L19.0714 17.8759V13.4116Z" fill="white"/>
</svg>
