<svg width="32" height="33" viewBox="0 0 32 33" fill="none" xmlns="http://www.w3.org/2000/svg">
<g clip-path="url(#clip0_1346_5599)">
<path d="M16.0001 2.82672C23.3641 2.82672 29.3334 8.79605 29.3334 16.1601C29.3334 23.5241 23.3641 29.4934 16.0001 29.4934C8.63608 29.4934 2.66675 23.5241 2.66675 16.1601C2.66675 8.79605 8.63608 2.82672 16.0001 2.82672ZM16.0001 8.16005C15.6465 8.16005 15.3073 8.30053 15.0573 8.55058C14.8072 8.80063 14.6667 9.13977 14.6667 9.49339V16.1601C14.6668 16.5136 14.8073 16.8527 15.0574 17.1027L19.0574 21.1027C19.3089 21.3456 19.6457 21.48 19.9953 21.477C20.3449 21.4739 20.6793 21.3337 20.9265 21.0865C21.1737 20.8393 21.3139 20.5049 21.317 20.1553C21.32 19.8057 21.1856 19.4689 20.9427 19.2174L17.3334 15.6081V9.49339C17.3334 9.13977 17.1929 8.80063 16.9429 8.55058C16.6928 8.30053 16.3537 8.16005 16.0001 8.16005Z" fill="white"/>
</g>
<defs>
<clipPath id="clip0_1346_5599">
<rect width="32" height="32" fill="white" transform="translate(0 0.160034)"/>
</clipPath>
</defs>
</svg>
